<?xml version="1.0" encoding="utf-8" standalone="no"?>
<!DOCTYPE svg PUBLIC "-//W3C//DTD SVG 1.1//EN"
  "http://www.w3.org/Graphics/SVG/1.1/DTD/svg11.dtd">
<!-- Created with matplotlib (https://matplotlib.org/) -->
<svg height="345.6pt" version="1.1" viewBox="0 0 720 345.6" width="720pt" xmlns="http://www.w3.org/2000/svg" xmlns:xlink="http://www.w3.org/1999/xlink">
 <defs>
  <style type="text/css">
*{stroke-linecap:butt;stroke-linejoin:round;}
  </style>
 </defs>
 <g id="figure_1">
  <g id="patch_1">
   <path d="M 0 345.6 
L 720 345.6 
L 720 0 
L 0 0 
z
" style="fill:#ffffff;"/>
  </g>
  <g id="axes_1">
   <g id="patch_2">
    <path d="M 90 307.584 
L 648 307.584 
L 648 41.472 
L 90 41.472 
z
" style="fill:#ffffff;"/>
   </g>
   <g id="matplotlib.axis_1">
    <g id="xtick_1">
     <g id="line2d_1">
      <defs>
       <path d="M 0 0 
L 0 3.5 
" id="mbd31f6756d" style="stroke:#000000;stroke-width:0.8;"/>
      </defs>
      <g>
       <use style="stroke:#000000;stroke-width:0.8;" x="115.363636" xlink:href="#mbd31f6756d" y="307.584"/>
      </g>
     </g>
     <g id="text_1">
      <!-- 1.8.0 -->
      <defs>
       <path d="M 12.40625 8.296875 
L 28.515625 8.296875 
L 28.515625 63.921875 
L 10.984375 60.40625 
L 10.984375 69.390625 
L 28.421875 72.90625 
L 38.28125 72.90625 
L 38.28125 8.296875 
L 54.390625 8.296875 
L 54.390625 0 
L 12.40625 0 
z
" id="DejaVuSans-49"/>
       <path d="M 10.6875 12.40625 
L 21 12.40625 
L 21 0 
L 10.6875 0 
z
" id="DejaVuSans-46"/>
       <path d="M 31.78125 34.625 
Q 24.75 34.625 20.71875 30.859375 
Q 16.703125 27.09375 16.703125 20.515625 
Q 16.703125 13.921875 20.71875 10.15625 
Q 24.75 6.390625 31.78125 6.390625 
Q 38.8125 6.390625 42.859375 10.171875 
Q 46.921875 13.96875 46.921875 20.515625 
Q 46.921875 27.09375 42.890625 30.859375 
Q 38.875 34.625 31.78125 34.625 
z
M 21.921875 38.8125 
Q 15.578125 40.375 12.03125 44.71875 
Q 8.5 49.078125 8.5 55.328125 
Q 8.5 64.0625 14.71875 69.140625 
Q 20.953125 74.21875 31.78125 74.21875 
Q 42.671875 74.21875 48.875 69.140625 
Q 55.078125 64.0625 55.078125 55.328125 
Q 55.078125 49.078125 51.53125 44.71875 
Q 48 40.375 41.703125 38.8125 
Q 48.828125 37.15625 52.796875 32.3125 
Q 56.78125 27.484375 56.78125 20.515625 
Q 56.78125 9.90625 50.3125 4.234375 
Q 43.84375 -1.421875 31.78125 -1.421875 
Q 19.734375 -1.421875 13.25 4.234375 
Q 6.78125 9.90625 6.78125 20.515625 
Q 6.78125 27.484375 10.78125 32.3125 
Q 14.796875 37.15625 21.921875 38.8125 
z
M 18.3125 54.390625 
Q 18.3125 48.734375 21.84375 45.5625 
Q 25.390625 42.390625 31.78125 42.390625 
Q 38.140625 42.390625 41.71875 45.5625 
Q 45.3125 48.734375 45.3125 54.390625 
Q 45.3125 60.0625 41.71875 63.234375 
Q 38.140625 66.40625 31.78125 66.40625 
Q 25.390625 66.40625 21.84375 63.234375 
Q 18.3125 60.0625 18.3125 54.390625 
z
" id="DejaVuSans-56"/>
       <path d="M 31.78125 66.40625 
Q 24.171875 66.40625 20.328125 58.90625 
Q 16.5 51.421875 16.5 36.375 
Q 16.5 21.390625 20.328125 13.890625 
Q 24.171875 6.390625 31.78125 6.390625 
Q 39.453125 6.390625 43.28125 13.890625 
Q 47.125 21.390625 47.125 36.375 
Q 47.125 51.421875 43.28125 58.90625 
Q 39.453125 66.40625 31.78125 66.40625 
z
M 31.78125 74.21875 
Q 44.046875 74.21875 50.515625 64.515625 
Q 56.984375 54.828125 56.984375 36.375 
Q 56.984375 17.96875 50.515625 8.265625 
Q 44.046875 -1.421875 31.78125 -1.421875 
Q 19.53125 -1.421875 13.0625 8.265625 
Q 6.59375 17.96875 6.59375 36.375 
Q 6.59375 54.828125 13.0625 64.515625 
Q 19.53125 74.21875 31.78125 74.21875 
z
" id="DejaVuSans-48"/>
      </defs>
      <g transform="translate(102.641761 322.182437)scale(0.1 -0.1)">
       <use xlink:href="#DejaVuSans-49"/>
       <use x="63.623047" xlink:href="#DejaVuSans-46"/>
       <use x="95.410156" xlink:href="#DejaVuSans-56"/>
       <use x="159.033203" xlink:href="#DejaVuSans-46"/>
       <use x="190.820312" xlink:href="#DejaVuSans-48"/>
      </g>
     </g>
    </g>
    <g id="xtick_2">
     <g id="line2d_2">
      <g>
       <use style="stroke:#000000;stroke-width:0.8;" x="178.772727" xlink:href="#mbd31f6756d" y="307.584"/>
      </g>
     </g>
     <g id="text_2">
      <!-- 1.8.1 -->
      <g transform="translate(166.050852 322.182437)scale(0.1 -0.1)">
       <use xlink:href="#DejaVuSans-49"/>
       <use x="63.623047" xlink:href="#DejaVuSans-46"/>
       <use x="95.410156" xlink:href="#DejaVuSans-56"/>
       <use x="159.033203" xlink:href="#DejaVuSans-46"/>
       <use x="190.820312" xlink:href="#DejaVuSans-49"/>
      </g>
     </g>
    </g>
    <g id="xtick_3">
     <g id="line2d_3">
      <g>
       <use style="stroke:#000000;stroke-width:0.8;" x="242.181818" xlink:href="#mbd31f6756d" y="307.584"/>
      </g>
     </g>
     <g id="text_3">
      <!-- 1.8.1-1 -->
      <defs>
       <path d="M 4.890625 31.390625 
L 31.203125 31.390625 
L 31.203125 23.390625 
L 4.890625 23.390625 
z
" id="DejaVuSans-45"/>
      </defs>
      <g transform="translate(224.474787 322.182437)scale(0.1 -0.1)">
       <use xlink:href="#DejaVuSans-49"/>
       <use x="63.623047" xlink:href="#DejaVuSans-46"/>
       <use x="95.410156" xlink:href="#DejaVuSans-56"/>
       <use x="159.033203" xlink:href="#DejaVuSans-46"/>
       <use x="190.820312" xlink:href="#DejaVuSans-49"/>
       <use x="254.443359" xlink:href="#DejaVuSans-45"/>
       <use x="290.527344" xlink:href="#DejaVuSans-49"/>
      </g>
     </g>
    </g>
    <g id="xtick_4">
     <g id="line2d_4">
      <g>
       <use style="stroke:#000000;stroke-width:0.8;" x="305.590909" xlink:href="#mbd31f6756d" y="307.584"/>
      </g>
     </g>
     <g id="text_4">
      <!-- 1.8.2 -->
      <defs>
       <path d="M 19.1875 8.296875 
L 53.609375 8.296875 
L 53.609375 0 
L 7.328125 0 
L 7.328125 8.296875 
Q 12.9375 14.109375 22.625 23.890625 
Q 32.328125 33.6875 34.8125 36.53125 
Q 39.546875 41.84375 41.421875 45.53125 
Q 43.3125 49.21875 43.3125 52.78125 
Q 43.3125 58.59375 39.234375 62.25 
Q 35.15625 65.921875 28.609375 65.921875 
Q 23.96875 65.921875 18.8125 64.3125 
Q 13.671875 62.703125 7.8125 59.421875 
L 7.8125 69.390625 
Q 13.765625 71.78125 18.9375 73 
Q 24.125 74.21875 28.421875 74.21875 
Q 39.75 74.21875 46.484375 68.546875 
Q 53.21875 62.890625 53.21875 53.421875 
Q 53.21875 48.921875 51.53125 44.890625 
Q 49.859375 40.875 45.40625 35.40625 
Q 44.1875 33.984375 37.640625 27.21875 
Q 31.109375 20.453125 19.1875 8.296875 
z
" id="DejaVuSans-50"/>
      </defs>
      <g transform="translate(292.869034 322.182437)scale(0.1 -0.1)">
       <use xlink:href="#DejaVuSans-49"/>
       <use x="63.623047" xlink:href="#DejaVuSans-46"/>
       <use x="95.410156" xlink:href="#DejaVuSans-56"/>
       <use x="159.033203" xlink:href="#DejaVuSans-46"/>
       <use x="190.820312" xlink:href="#DejaVuSans-50"/>
      </g>
     </g>
    </g>
    <g id="xtick_5">
     <g id="line2d_5">
      <g>
       <use style="stroke:#000000;stroke-width:0.8;" x="369" xlink:href="#mbd31f6756d" y="307.584"/>
      </g>
     </g>
     <g id="text_5">
      <!-- 1.8.3 -->
      <defs>
       <path d="M 40.578125 39.3125 
Q 47.65625 37.796875 51.625 33 
Q 55.609375 28.21875 55.609375 21.1875 
Q 55.609375 10.40625 48.1875 4.484375 
Q 40.765625 -1.421875 27.09375 -1.421875 
Q 22.515625 -1.421875 17.65625 -0.515625 
Q 12.796875 0.390625 7.625 2.203125 
L 7.625 11.71875 
Q 11.71875 9.328125 16.59375 8.109375 
Q 21.484375 6.890625 26.8125 6.890625 
Q 36.078125 6.890625 40.9375 10.546875 
Q 45.796875 14.203125 45.796875 21.1875 
Q 45.796875 27.640625 41.28125 31.265625 
Q 36.765625 34.90625 28.71875 34.90625 
L 20.21875 34.90625 
L 20.21875 43.015625 
L 29.109375 43.015625 
Q 36.375 43.015625 40.234375 45.921875 
Q 44.09375 48.828125 44.09375 54.296875 
Q 44.09375 59.90625 40.109375 62.90625 
Q 36.140625 65.921875 28.71875 65.921875 
Q 24.65625 65.921875 20.015625 65.03125 
Q 15.375 64.15625 9.8125 62.3125 
L 9.8125 71.09375 
Q 15.4375 72.65625 20.34375 73.4375 
Q 25.25 74.21875 29.59375 74.21875 
Q 40.828125 74.21875 47.359375 69.109375 
Q 53.90625 64.015625 53.90625 55.328125 
Q 53.90625 49.265625 50.4375 45.09375 
Q 46.96875 40.921875 40.578125 39.3125 
z
" id="DejaVuSans-51"/>
      </defs>
      <g transform="translate(356.278125 322.182437)scale(0.1 -0.1)">
       <use xlink:href="#DejaVuSans-49"/>
       <use x="63.623047" xlink:href="#DejaVuSans-46"/>
       <use x="95.410156" xlink:href="#DejaVuSans-56"/>
       <use x="159.033203" xlink:href="#DejaVuSans-46"/>
       <use x="190.820312" xlink:href="#DejaVuSans-51"/>
      </g>
     </g>
    </g>
    <g id="xtick_6">
     <g id="line2d_6">
      <g>
       <use style="stroke:#000000;stroke-width:0.8;" x="432.409091" xlink:href="#mbd31f6756d" y="307.584"/>
      </g>
     </g>
     <g id="text_6">
      <!-- 2.0.0 -->
      <g transform="translate(419.687216 322.182437)scale(0.1 -0.1)">
       <use xlink:href="#DejaVuSans-50"/>
       <use x="63.623047" xlink:href="#DejaVuSans-46"/>
       <use x="95.410156" xlink:href="#DejaVuSans-48"/>
       <use x="159.033203" xlink:href="#DejaVuSans-46"/>
       <use x="190.820312" xlink:href="#DejaVuSans-48"/>
      </g>
     </g>
    </g>
    <g id="xtick_7">
     <g id="line2d_7">
      <g>
       <use style="stroke:#000000;stroke-width:0.8;" x="495.818182" xlink:href="#mbd31f6756d" y="307.584"/>
      </g>
     </g>
     <g id="text_7">
      <!-- 2.0.1 -->
      <g transform="translate(483.096307 322.182437)scale(0.1 -0.1)">
       <use xlink:href="#DejaVuSans-50"/>
       <use x="63.623047" xlink:href="#DejaVuSans-46"/>
       <use x="95.410156" xlink:href="#DejaVuSans-48"/>
       <use x="159.033203" xlink:href="#DejaVuSans-46"/>
       <use x="190.820312" xlink:href="#DejaVuSans-49"/>
      </g>
     </g>
    </g>
    <g id="xtick_8">
     <g id="line2d_8">
      <g>
       <use style="stroke:#000000;stroke-width:0.8;" x="559.227273" xlink:href="#mbd31f6756d" y="307.584"/>
      </g>
     </g>
     <g id="text_8">
      <!-- 2.1.0 -->
      <g transform="translate(546.505398 322.182437)scale(0.1 -0.1)">
       <use xlink:href="#DejaVuSans-50"/>
       <use x="63.623047" xlink:href="#DejaVuSans-46"/>
       <use x="95.410156" xlink:href="#DejaVuSans-49"/>
       <use x="159.033203" xlink:href="#DejaVuSans-46"/>
       <use x="190.820312" xlink:href="#DejaVuSans-48"/>
      </g>
     </g>
    </g>
    <g id="xtick_9">
     <g id="line2d_9">
      <g>
       <use style="stroke:#000000;stroke-width:0.8;" x="622.636364" xlink:href="#mbd31f6756d" y="307.584"/>
      </g>
     </g>
     <g id="text_9">
      <!-- 2.1.1 -->
      <g transform="translate(609.914489 322.182437)scale(0.1 -0.1)">
       <use xlink:href="#DejaVuSans-50"/>
       <use x="63.623047" xlink:href="#DejaVuSans-46"/>
       <use x="95.410156" xlink:href="#DejaVuSans-49"/>
       <use x="159.033203" xlink:href="#DejaVuSans-46"/>
       <use x="190.820312" xlink:href="#DejaVuSans-49"/>
      </g>
     </g>
    </g>
    <g id="text_10">
     <!-- 版本号 -->
     <defs>
      <path d="M 17.5 49.5 
L 43.90625 49.5 
L 43.90625 56.203125 
L 35.203125 56.203125 
L 35.203125 83.90625 
L 28.40625 83.90625 
L 28.40625 56.203125 
L 17.5 56.203125 
L 17.5 81.59375 
L 10.796875 81.59375 
L 10.796875 42.296875 
C 10.796875 27.203125 9.90625 9.296875 3 -3.296875 
C 4.59375 -4.296875 7.09375 -6.5 8.203125 -7.703125 
C 14.296875 2.40625 16.5 15.40625 17.203125 28.40625 
L 31.09375 28.40625 
L 31.09375 -7.5 
L 37.90625 -7.5 
L 37.90625 35.09375 
L 17.40625 35.09375 
C 17.5 37.5 17.5 39.90625 17.5 42.296875 
z
M 84.796875 46.703125 
C 82.59375 36 78.796875 26.703125 73.90625 19.09375 
C 69.09375 27 65.59375 36.296875 63.203125 46.703125 
z
M 88.296875 53.703125 
L 87 53.40625 
L 55.5 53.40625 
L 55.5 72.40625 
L 93.703125 72.40625 
L 93.703125 79.203125 
L 48.5 79.203125 
L 48.5 50.703125 
C 48.5 34.703125 47.796875 12.203125 39.09375 -3.90625 
C 40.796875 -4.5 43.796875 -6.40625 45.203125 -7.5 
C 53.5 7.90625 55.296875 30.09375 55.5 46.703125 
L 56.90625 46.703125 
C 59.703125 33.796875 63.796875 22.296875 69.59375 13 
C 64.40625 6.5 58.40625 1.59375 51.90625 -1.59375 
C 53.5 -3 55.59375 -5.796875 56.59375 -7.59375 
C 63 -4 68.90625 0.703125 73.90625 6.796875 
C 78.796875 0.703125 84.703125 -4.203125 91.703125 -7.703125 
C 93 -5.796875 95.296875 -3 96.796875 -1.59375 
C 89.5 1.59375 83.40625 6.5 78.40625 12.703125 
C 85.203125 22.90625 90.296875 35.90625 92.796875 52.203125 
z
" id="NotoSansCJKjp-Regular-29256"/>
      <path d="M 93.40625 55.296875 
L 93.40625 62.703125 
L 53.796875 62.703125 
L 53.796875 83.59375 
L 46.09375 83.59375 
L 46.09375 62.703125 
L 6.796875 62.703125 
L 6.796875 55.296875 
L 41.5 55.296875 
C 33.09375 38.203125 18.59375 22 3.40625 14.09375 
C 5.09375 12.703125 7.59375 9.90625 8.703125 8.09375 
C 23.40625 16.59375 36.90625 31.703125 46.09375 49 
L 46.09375 18.40625 
L 26.59375 18.40625 
L 26.59375 11 
L 46.09375 11 
L 46.09375 -7.59375 
L 53.796875 -7.59375 
L 53.796875 11 
L 72.796875 11 
L 72.796875 18.40625 
L 53.796875 18.40625 
L 53.796875 49 
C 62.796875 31.703125 76.203125 16.5 91.296875 8.203125 
C 92.40625 10.296875 95 13.203125 96.796875 14.703125 
C 81.09375 22.296875 66.703125 38.203125 58.40625 55.296875 
z
" id="NotoSansCJKjp-Regular-26412"/>
      <path d="M 74.59375 57 
L 26.203125 57 
L 26.203125 72.90625 
L 74.59375 72.90625 
z
M 82.09375 79.59375 
L 18.90625 79.59375 
L 18.90625 50.40625 
L 82.09375 50.40625 
z
M 94.59375 35.90625 
L 94.59375 42.59375 
L 5.203125 42.59375 
L 5.203125 35.90625 
L 26.796875 35.90625 
C 24.40625 28.5 21.40625 20.203125 19 14.703125 
L 26.90625 13.296875 
C 27.703125 15.296875 28.59375 17.703125 29.59375 20.203125 
L 73.59375 20.203125 
C 71.59375 7.90625 69.59375 2 67 -0.09375 
C 65.796875 -0.90625 64.5 -1 62.203125 -1 
C 59.40625 -1 52.203125 -0.90625 45.09375 -0.296875 
C 46.59375 -2.203125 47.5 -5.203125 47.59375 -7.296875 
C 54.59375 -7.703125 61.296875 -7.796875 64.59375 -7.703125 
C 68.40625 -7.5 70.796875 -7 73.09375 -4.90625 
C 76.90625 -1.59375 79.296875 6.203125 81.796875 23.59375 
C 82 24.703125 82.203125 27.09375 82.203125 27.09375 
L 32 27.09375 
C 33 30 34 33 35 35.90625 
z
" id="NotoSansCJKjp-Regular-21495"/>
     </defs>
     <g transform="translate(354 336.2215)scale(0.1 -0.1)">
      <use xlink:href="#NotoSansCJKjp-Regular-29256"/>
      <use x="99.999985" xlink:href="#NotoSansCJKjp-Regular-26412"/>
      <use x="199.999969" xlink:href="#NotoSansCJKjp-Regular-21495"/>
     </g>
    </g>
   </g>
   <g id="matplotlib.axis_2">
    <g id="ytick_1">
     <g id="line2d_10">
      <defs>
       <path d="M 0 0 
L -3.5 0 
" id="m85e79716b3" style="stroke:#000000;stroke-width:0.8;"/>
      </defs>
      <g>
       <use style="stroke:#000000;stroke-width:0.8;" x="90" xlink:href="#m85e79716b3" y="297.450096"/>
      </g>
     </g>
     <g id="text_11">
      <!-- 0 -->
      <g transform="translate(76.6375 301.249315)scale(0.1 -0.1)">
       <use xlink:href="#DejaVuSans-48"/>
      </g>
     </g>
    </g>
    <g id="ytick_2">
     <g id="line2d_11">
      <g>
       <use style="stroke:#000000;stroke-width:0.8;" x="90" xlink:href="#m85e79716b3" y="254.327102"/>
      </g>
     </g>
     <g id="text_12">
      <!-- 2000 -->
      <g transform="translate(57.55 258.12632)scale(0.1 -0.1)">
       <use xlink:href="#DejaVuSans-50"/>
       <use x="63.623047" xlink:href="#DejaVuSans-48"/>
       <use x="127.246094" xlink:href="#DejaVuSans-48"/>
       <use x="190.869141" xlink:href="#DejaVuSans-48"/>
      </g>
     </g>
    </g>
    <g id="ytick_3">
     <g id="line2d_12">
      <g>
       <use style="stroke:#000000;stroke-width:0.8;" x="90" xlink:href="#m85e79716b3" y="211.204107"/>
      </g>
     </g>
     <g id="text_13">
      <!-- 4000 -->
      <defs>
       <path d="M 37.796875 64.3125 
L 12.890625 25.390625 
L 37.796875 25.390625 
z
M 35.203125 72.90625 
L 47.609375 72.90625 
L 47.609375 25.390625 
L 58.015625 25.390625 
L 58.015625 17.1875 
L 47.609375 17.1875 
L 47.609375 0 
L 37.796875 0 
L 37.796875 17.1875 
L 4.890625 17.1875 
L 4.890625 26.703125 
z
" id="DejaVuSans-52"/>
      </defs>
      <g transform="translate(57.55 215.003326)scale(0.1 -0.1)">
       <use xlink:href="#DejaVuSans-52"/>
       <use x="63.623047" xlink:href="#DejaVuSans-48"/>
       <use x="127.246094" xlink:href="#DejaVuSans-48"/>
       <use x="190.869141" xlink:href="#DejaVuSans-48"/>
      </g>
     </g>
    </g>
    <g id="ytick_4">
     <g id="line2d_13">
      <g>
       <use style="stroke:#000000;stroke-width:0.8;" x="90" xlink:href="#m85e79716b3" y="168.081112"/>
      </g>
     </g>
     <g id="text_14">
      <!-- 6000 -->
      <defs>
       <path d="M 33.015625 40.375 
Q 26.375 40.375 22.484375 35.828125 
Q 18.609375 31.296875 18.609375 23.390625 
Q 18.609375 15.53125 22.484375 10.953125 
Q 26.375 6.390625 33.015625 6.390625 
Q 39.65625 6.390625 43.53125 10.953125 
Q 47.40625 15.53125 47.40625 23.390625 
Q 47.40625 31.296875 43.53125 35.828125 
Q 39.65625 40.375 33.015625 40.375 
z
M 52.59375 71.296875 
L 52.59375 62.3125 
Q 48.875 64.0625 45.09375 64.984375 
Q 41.3125 65.921875 37.59375 65.921875 
Q 27.828125 65.921875 22.671875 59.328125 
Q 17.53125 52.734375 16.796875 39.40625 
Q 19.671875 43.65625 24.015625 45.921875 
Q 28.375 48.1875 33.59375 48.1875 
Q 44.578125 48.1875 50.953125 41.515625 
Q 57.328125 34.859375 57.328125 23.390625 
Q 57.328125 12.15625 50.6875 5.359375 
Q 44.046875 -1.421875 33.015625 -1.421875 
Q 20.359375 -1.421875 13.671875 8.265625 
Q 6.984375 17.96875 6.984375 36.375 
Q 6.984375 53.65625 15.1875 63.9375 
Q 23.390625 74.21875 37.203125 74.21875 
Q 40.921875 74.21875 44.703125 73.484375 
Q 48.484375 72.75 52.59375 71.296875 
z
" id="DejaVuSans-54"/>
      </defs>
      <g transform="translate(57.55 171.880331)scale(0.1 -0.1)">
       <use xlink:href="#DejaVuSans-54"/>
       <use x="63.623047" xlink:href="#DejaVuSans-48"/>
       <use x="127.246094" xlink:href="#DejaVuSans-48"/>
       <use x="190.869141" xlink:href="#DejaVuSans-48"/>
      </g>
     </g>
    </g>
    <g id="ytick_5">
     <g id="line2d_14">
      <g>
       <use style="stroke:#000000;stroke-width:0.8;" x="90" xlink:href="#m85e79716b3" y="124.958118"/>
      </g>
     </g>
     <g id="text_15">
      <!-- 8000 -->
      <g transform="translate(57.55 128.757336)scale(0.1 -0.1)">
       <use xlink:href="#DejaVuSans-56"/>
       <use x="63.623047" xlink:href="#DejaVuSans-48"/>
       <use x="127.246094" xlink:href="#DejaVuSans-48"/>
       <use x="190.869141" xlink:href="#DejaVuSans-48"/>
      </g>
     </g>
    </g>
    <g id="ytick_6">
     <g id="line2d_15">
      <g>
       <use style="stroke:#000000;stroke-width:0.8;" x="90" xlink:href="#m85e79716b3" y="81.835123"/>
      </g>
     </g>
     <g id="text_16">
      <!-- 10000 -->
      <g transform="translate(51.1875 85.634342)scale(0.1 -0.1)">
       <use xlink:href="#DejaVuSans-49"/>
       <use x="63.623047" xlink:href="#DejaVuSans-48"/>
       <use x="127.246094" xlink:href="#DejaVuSans-48"/>
       <use x="190.869141" xlink:href="#DejaVuSans-48"/>
       <use x="254.492188" xlink:href="#DejaVuSans-48"/>
      </g>
     </g>
    </g>
    <g id="text_17">
     <!-- 打开数 -->
     <defs>
      <path d="M 41.296875 41.296875 
L 27.40625 37.40625 
L 27.40625 56.5 
L 41.203125 56.5 
L 41.203125 63.59375 
L 27.40625 63.59375 
L 27.40625 83.5 
L 20.09375 83.5 
L 20.09375 63.59375 
L 5.203125 63.59375 
L 5.203125 56.5 
L 20.09375 56.5 
L 20.09375 35.203125 
C 14.203125 33.703125 8.703125 32.203125 4.296875 31.09375 
L 6.5 23.59375 
C 10.59375 24.796875 15.203125 26.203125 20.09375 27.59375 
L 20.09375 2.296875 
C 20.09375 0.796875 19.5 0.296875 18.09375 0.296875 
C 16.90625 0.296875 12.59375 0.296875 7.796875 0.40625 
C 8.796875 -1.59375 9.90625 -4.59375 10.203125 -6.59375 
C 17.09375 -6.59375 21.203125 -6.5 23.796875 -5.203125 
C 26.40625 -4 27.40625 -2.09375 27.40625 2.203125 
L 27.40625 29.90625 
C 32.296875 31.296875 37.296875 32.90625 42.203125 34.40625 
z
M 95.703125 75.203125 
L 41.703125 75.203125 
L 41.703125 67.90625 
L 70.203125 67.90625 
L 70.203125 3.296875 
C 70.203125 1.40625 69.40625 0.796875 67.5 0.703125 
C 65.40625 0.59375 58.09375 0.59375 50.796875 0.90625 
C 52 -1.203125 53.40625 -4.90625 53.90625 -7.09375 
C 63.296875 -7.09375 69.5 -7 73.09375 -5.59375 
C 76.703125 -4.40625 78 -1.90625 78 3.203125 
L 78 67.90625 
L 95.703125 67.90625 
z
" id="NotoSansCJKjp-Regular-25171"/>
      <path d="M 36.90625 41.703125 
C 36.90625 43.09375 36.90625 44.5 36.90625 45.90625 
L 36.90625 70 
L 64.703125 70 
L 64.703125 41.703125 
z
M 94.5 41.703125 
L 72.296875 41.703125 
L 72.296875 70 
L 91.40625 70 
L 91.40625 77.09375 
L 9.296875 77.09375 
L 9.296875 70 
L 29.40625 70 
L 29.40625 46 
C 29.40625 44.5 29.40625 43.203125 29.296875 41.703125 
L 5.59375 41.703125 
L 5.59375 34.5 
L 29 34.5 
C 27.59375 21 22.5 7.59375 5.90625 -2.59375 
C 7.703125 -3.796875 10.40625 -6.40625 11.796875 -8.09375 
C 30.09375 3.40625 35.203125 18.90625 36.59375 34.5 
L 64.703125 34.5 
L 64.703125 -7.796875 
L 72.296875 -7.796875 
L 72.296875 34.5 
L 94.5 34.5 
z
" id="NotoSansCJKjp-Regular-24320"/>
      <path d="M 43.796875 81.703125 
C 42.203125 77.796875 38.796875 72 36.40625 68.5 
L 41.40625 66.09375 
C 44 69.40625 47.40625 74.40625 50.296875 79 
z
M 20.703125 68.5 
C 19.703125 72 17 77.296875 14.203125 81.296875 
L 8.59375 79 
C 11.296875 74.90625 13.90625 69.40625 14.796875 65.90625 
z
M 64.5 58.40625 
L 81.90625 58.40625 
C 80.09375 46 77.40625 35.40625 73.09375 26.5 
C 69.09375 35.796875 66.296875 46.59375 64.40625 58.09375 
z
M 37.203125 24.5 
C 35.90625 19.09375 33.90625 14.703125 30.90625 11.09375 
C 27 13 23 14.796875 19 16.40625 
C 20.296875 19 21.796875 21.703125 23.203125 24.5 
z
M 95.59375 58.40625 
L 95.59375 65.40625 
L 66.59375 65.40625 
C 68 70.90625 69.296875 76.703125 70.296875 82.59375 
L 62.703125 83.703125 
C 60 66.09375 54.796875 49.40625 46.40625 38.90625 
C 48.09375 37.703125 51.296875 35.203125 52.40625 33.796875 
C 55.09375 37.40625 57.59375 41.59375 59.703125 46.296875 
C 62 36.09375 64.90625 26.796875 68.703125 18.703125 
C 63.796875 11.203125 57.203125 5.203125 48.703125 0.5 
C 45.59375 2.796875 41.59375 5.40625 37.203125 7.796875 
C 40.59375 12.296875 42.90625 17.796875 44.296875 24.5 
L 53 24.5 
L 53 30.703125 
L 26.296875 30.703125 
C 27.5 33.09375 28.59375 35.5 29.703125 37.703125 
L 28 38.09375 
L 32.296875 38.09375 
L 32.296875 53 
C 37.09375 49.40625 43.40625 44.59375 46 42.203125 
L 50.09375 47.5 
C 47.40625 49.5 36.59375 56.296875 32.296875 58.796875 
L 32.296875 59.296875 
L 52.59375 59.296875 
L 52.59375 65.40625 
L 32.296875 65.40625 
L 32.296875 83.703125 
L 25.40625 83.703125 
L 25.40625 65.40625 
L 4.90625 65.40625 
L 4.90625 59.296875 
L 23.40625 59.296875 
C 18.5 52.796875 10.90625 46.59375 3.796875 43.40625 
C 5.203125 42.09375 7 39.5 7.90625 37.796875 
C 14 41.09375 20.40625 46.59375 25.40625 52.5 
L 25.40625 38.703125 
L 22.796875 39.296875 
C 21.59375 36.59375 20.203125 33.703125 18.703125 30.703125 
L 4.296875 30.703125 
L 4.296875 24.5 
L 15.59375 24.5 
C 12.90625 19.296875 10.203125 14.203125 8 10.40625 
L 14.40625 8.09375 
L 16 10.90625 
C 19.296875 9.5 22.59375 7.90625 25.796875 6.296875 
C 20.703125 2.59375 13.703125 0.09375 4.5 -1.5 
C 5.90625 -2.90625 7.40625 -5.59375 7.90625 -7.59375 
C 18.59375 -5.296875 26.5 -2 32.296875 2.796875 
C 36.90625 0.09375 40.90625 -2.59375 44 -5.09375 
L 46.296875 -2.703125 
C 47.59375 -4.40625 48.90625 -6.59375 49.5 -7.90625 
C 59.296875 -2.90625 66.796875 3.5 72.703125 11.296875 
C 77.59375 3.296875 83.703125 -3.09375 91.40625 -7.59375 
C 92.40625 -5.59375 94.796875 -2.703125 96.5 -1.296875 
C 88.5 2.90625 82.203125 9.703125 77.203125 18.296875 
C 83.296875 29 87.09375 42.203125 89.59375 58.40625 
z
" id="NotoSansCJKjp-Regular-25968"/>
     </defs>
     <g transform="translate(44.896875 189.528)rotate(-90)scale(0.1 -0.1)">
      <use xlink:href="#NotoSansCJKjp-Regular-25171"/>
      <use x="99.999985" xlink:href="#NotoSansCJKjp-Regular-24320"/>
      <use x="199.999969" xlink:href="#NotoSansCJKjp-Regular-25968"/>
     </g>
    </g>
   </g>
   <g id="line2d_16">
    <path clip-path="url(#p5f47e535dd)" d="M 115.363636 295.488 
L 178.772727 283.693861 
L 242.181818 291.585369 
L 305.590909 295.358631 
L 369 294.409925 
L 432.409091 284.25446 
L 495.818182 291.499123 
L 559.227273 277.91538 
L 622.636364 53.568 
" style="fill:none;stroke:#1f77b4;stroke-linecap:square;stroke-width:1.5;"/>
   </g>
   <g id="patch_3">
    <path d="M 90 307.584 
L 90 41.472 
" style="fill:none;stroke:#000000;stroke-linecap:square;stroke-linejoin:miter;stroke-width:0.8;"/>
   </g>
   <g id="patch_4">
    <path d="M 648 307.584 
L 648 41.472 
" style="fill:none;stroke:#000000;stroke-linecap:square;stroke-linejoin:miter;stroke-width:0.8;"/>
   </g>
   <g id="patch_5">
    <path d="M 90 307.584 
L 648 307.584 
" style="fill:none;stroke:#000000;stroke-linecap:square;stroke-linejoin:miter;stroke-width:0.8;"/>
   </g>
   <g id="patch_6">
    <path d="M 90 41.472 
L 648 41.472 
" style="fill:none;stroke:#000000;stroke-linecap:square;stroke-linejoin:miter;stroke-width:0.8;"/>
   </g>
   <g id="text_18">
    <!-- “UEngine 运行器”打开数（数据只供参考，截止时间：2024.5.9 2:11:19.630893） -->
    <defs>
     <path d="M 13.296875 48 
C 16.796875 48 19.203125 50.203125 19.203125 54.09375 
C 19.203125 57.703125 16.40625 59.703125 13.296875 59.703125 
C 13 59.703125 12.703125 59.703125 12.40625 59.59375 
C 12.40625 65.90625 15.203125 69.796875 20.796875 73.5 
L 18.203125 77.796875 
C 10.5 73.296875 6.296875 66.90625 6.296875 58 
C 6.296875 51.59375 8.90625 48 13.296875 48 
z
M 32.90625 48 
C 36.40625 48 38.90625 50.203125 38.90625 54.09375 
C 38.90625 57.703125 36 59.703125 32.90625 59.703125 
C 32.59375 59.703125 32.296875 59.703125 32 59.59375 
C 32 65.90625 34.90625 69.796875 40.40625 73.5 
L 37.796875 77.796875 
C 30.203125 73.296875 26 66.90625 26 58 
C 26 51.59375 28.59375 48 32.90625 48 
z
" id="NotoSansCJKjp-Regular-8220"/>
     <path d="M 36 -1.296875 
C 51 -1.296875 62.40625 6.703125 62.40625 30.296875 
L 62.40625 73.40625 
L 53.5 73.40625 
L 53.5 30 
C 53.5 12.296875 45.796875 6.796875 36 6.796875 
C 26.5 6.796875 19 12.296875 19 30 
L 19 73.40625 
L 9.703125 73.40625 
L 9.703125 30.296875 
C 9.703125 6.703125 21.09375 -1.296875 36 -1.296875 
z
" id="NotoSansCJKjp-Regular-85"/>
     <path d="M 10 0 
L 53.40625 0 
L 53.40625 7.90625 
L 19.296875 7.90625 
L 19.296875 34.59375 
L 47.09375 34.59375 
L 47.09375 42.5 
L 19.296875 42.5 
L 19.296875 65.5 
L 52.296875 65.5 
L 52.296875 73.40625 
L 10 73.40625 
z
" id="NotoSansCJKjp-Regular-69"/>
     <path d="M 9.203125 0 
L 18.296875 0 
L 18.296875 39.40625 
C 23.796875 44.90625 27.59375 47.703125 33.203125 47.703125 
C 40.40625 47.703125 43.5 43.40625 43.5 33.203125 
L 43.5 0 
L 52.59375 0 
L 52.59375 34.40625 
C 52.59375 48.296875 47.40625 55.703125 36 55.703125 
C 28.59375 55.703125 23 51.59375 17.796875 46.5 
L 17.5 46.5 
L 16.703125 54.296875 
L 9.203125 54.296875 
z
" id="NotoSansCJKjp-Regular-110"/>
     <path d="M 27.5 -25 
C 44.296875 -25 55 -16.296875 55 -6.203125 
C 55 2.703125 48.59375 6.703125 36 6.703125 
L 25.40625 6.703125 
C 18.09375 6.703125 15.90625 9.09375 15.90625 12.59375 
C 15.90625 15.59375 17.40625 17.40625 19.40625 19.09375 
C 21.796875 17.90625 24.796875 17.203125 27.5 17.203125 
C 38.5 17.203125 47.296875 24.5 47.296875 36.09375 
C 47.296875 40.796875 45.5 44.796875 42.90625 47.296875 
L 54 47.296875 
L 54 54.296875 
L 35.09375 54.296875 
C 33.203125 55 30.5 55.703125 27.5 55.703125 
C 16.5 55.703125 7.09375 48.203125 7.09375 36.296875 
C 7.09375 29.796875 10.59375 24.59375 14.203125 21.703125 
L 14.203125 21.296875 
C 11.40625 19.296875 8.09375 15.703125 8.09375 11.203125 
C 8.09375 6.90625 10.203125 4 13.09375 2.296875 
L 13.09375 1.90625 
C 8 -1.40625 5.09375 -5.796875 5.09375 -10.40625 
C 5.09375 -19.796875 14.203125 -25 27.5 -25 
z
M 27.5 23.40625 
C 21.203125 23.40625 15.90625 28.40625 15.90625 36.296875 
C 15.90625 44.296875 21.09375 49 27.5 49 
C 33.90625 49 39.09375 44.203125 39.09375 36.296875 
C 39.09375 28.40625 33.703125 23.40625 27.5 23.40625 
z
M 28.796875 -18.796875 
C 19 -18.796875 13.09375 -15 13.09375 -9.203125 
C 13.09375 -6 14.703125 -2.796875 18.59375 0 
C 21 -0.59375 23.59375 -0.90625 25.59375 -0.90625 
L 35 -0.90625 
C 42.203125 -0.90625 46.09375 -2.59375 46.09375 -7.59375 
C 46.09375 -13.296875 39.203125 -18.796875 28.796875 -18.796875 
z
" id="NotoSansCJKjp-Regular-103"/>
     <path d="M 9.203125 0 
L 18.296875 0 
L 18.296875 54.296875 
L 9.203125 54.296875 
z
M 13.796875 65.5 
C 17.40625 65.5 19.90625 67.90625 19.90625 71.59375 
C 19.90625 75.09375 17.40625 77.5 13.796875 77.5 
C 10.203125 77.5 7.703125 75.09375 7.703125 71.59375 
C 7.703125 67.90625 10.203125 65.5 13.796875 65.5 
z
" id="NotoSansCJKjp-Regular-105"/>
     <path d="M 31.09375 -1.296875 
C 38.5 -1.296875 44.296875 1.203125 49.09375 4.296875 
L 45.796875 10.296875 
C 41.796875 7.59375 37.5 6 32.203125 6 
C 21.90625 6 14.796875 13.40625 14.203125 25 
L 50.796875 25 
C 51 26.296875 51.203125 28.203125 51.203125 30.203125 
C 51.203125 45.703125 43.40625 55.703125 29.59375 55.703125 
C 17 55.703125 5.09375 44.703125 5.09375 27.09375 
C 5.09375 9.203125 16.703125 -1.296875 31.09375 -1.296875 
z
M 14.09375 31.59375 
C 15.203125 42.203125 22 48.40625 29.703125 48.40625 
C 38.203125 48.40625 43.203125 42.5 43.203125 31.59375 
z
" id="NotoSansCJKjp-Regular-101"/>
     <path id="NotoSansCJKjp-Regular-32"/>
     <path d="M 88.40625 77.90625 
L 38.40625 77.90625 
L 38.40625 71 
L 88.40625 71 
z
M 32.796875 19.796875 
L 33.90625 12.5 
C 47.09375 13.59375 66.5 15.296875 85 17.09375 
C 86.59375 14.203125 87.90625 11.40625 88.796875 9 
L 95.203125 12.5 
C 92 20.703125 83.90625 32.796875 76.203125 41.90625 
L 70.203125 38.90625 
C 74.09375 34.296875 78 28.90625 81.296875 23.59375 
C 70.09375 22.703125 58.90625 21.796875 49.203125 21 
C 53 28.796875 57.203125 39 60.59375 47.703125 
L 95.703125 47.703125 
L 95.703125 54.703125 
L 32.09375 54.703125 
L 32.09375 47.703125 
L 51.796875 47.703125 
C 49.296875 38.90625 45.203125 28.09375 41.59375 20.40625 
z
M 30.703125 70.5 
C 27.40625 74.40625 20.09375 79.296875 14.203125 82.40625 
L 9.296875 77.796875 
C 15.296875 74.5 22.296875 69.296875 25.5 65.40625 
z
M 27.796875 51 
C 24 54.796875 16.5 59.59375 10.296875 62.40625 
L 5.40625 57.59375 
C 11.703125 54.5 19.09375 49.5 22.703125 45.703125 
z
M 25.296875 37.5 
L 5 37.5 
L 5 30.59375 
L 18.09375 30.59375 
L 18.09375 12 
C 13.40625 7.796875 8.09375 3.59375 3.703125 0.59375 
L 7.59375 -6.703125 
C 12.703125 -2.40625 17.59375 1.796875 22.09375 6.09375 
C 28.40625 -1.59375 37.5 -5.203125 50.59375 -5.796875 
C 61.703125 -6.09375 82.59375 -5.90625 93.59375 -5.5 
C 94 -3.203125 95.09375 0.203125 96.09375 1.90625 
C 84.203125 1.09375 61.5 0.90625 50.5 1.203125 
C 38.90625 1.703125 30.09375 5.09375 25.296875 12.5 
z
" id="NotoSansCJKjp-Regular-36816"/>
     <path d="M 92.296875 77.59375 
L 43.5 77.59375 
L 43.5 70.59375 
L 92.296875 70.59375 
z
M 26.796875 83.703125 
C 21.796875 76.59375 12.203125 67.59375 3.90625 62 
C 5.203125 60.59375 7.203125 57.703125 8.296875 56.09375 
C 17.203125 62.40625 27.40625 72.09375 33.90625 80.90625 
z
M 30.90625 62.40625 
C 24 51.09375 13.203125 39.59375 2.90625 32.296875 
C 4.40625 30.796875 7 27.59375 8.09375 26.09375 
C 11.796875 29 15.59375 32.59375 19.40625 36.5 
L 19.40625 -7.90625 
L 26.796875 -7.90625 
L 26.796875 44.703125 
C 30.90625 49.59375 34.703125 54.703125 37.796875 59.796875 
z
M 95.203125 50.296875 
L 39.203125 50.296875 
L 39.203125 43.203125 
L 72.59375 43.203125 
L 72.59375 2 
C 72.59375 0.296875 72 -0.09375 70.09375 -0.203125 
C 68.203125 -0.296875 61.59375 -0.296875 54.5 -0.09375 
C 55.59375 -2.203125 56.59375 -5.296875 56.90625 -7.296875 
C 66.703125 -7.296875 72.296875 -7.296875 75.703125 -6.203125 
C 79 -5 80.09375 -2.703125 80.09375 1.90625 
L 80.09375 43.203125 
L 95.203125 43.203125 
z
" id="NotoSansCJKjp-Regular-34892"/>
     <path d="M 81 57.90625 
L 62.296875 57.90625 
L 62.296875 73.203125 
L 81 73.203125 
z
M 88 79.296875 
L 55.59375 79.296875 
L 55.59375 51.90625 
L 88 51.90625 
z
M 61.203125 2.296875 
L 61.203125 18.203125 
L 79.40625 18.203125 
L 79.40625 2.296875 
z
M 38.40625 2.296875 
L 20.5 2.296875 
L 20.5 18.203125 
L 38.40625 18.203125 
z
M 37.59375 57.90625 
L 19.09375 57.90625 
L 19.09375 73.203125 
L 37.59375 73.203125 
z
M 94.59375 37.59375 
L 94.59375 44.296875 
L 47.90625 44.296875 
C 49.59375 46.796875 51.09375 49.5 52.40625 52.296875 
L 45.203125 54.59375 
L 44.59375 53.296875 
L 44.59375 79.296875 
L 12.40625 79.296875 
L 12.40625 51.90625 
L 43.90625 51.90625 
C 42.5 49.203125 40.796875 46.703125 38.796875 44.296875 
L 5.59375 44.296875 
L 5.59375 37.59375 
L 32.296875 37.59375 
C 24.59375 30.90625 14.59375 25.703125 3.09375 21.90625 
C 4.5 20.59375 6.796875 17.90625 7.703125 16.296875 
C 9.796875 17 11.90625 17.796875 13.90625 18.703125 
L 13.90625 -7.796875 
L 20.5 -7.796875 
L 20.5 -4.09375 
L 38.40625 -4.09375 
L 38.40625 -7.5 
L 45.296875 -7.5 
L 45.296875 24.5 
L 25.796875 24.5 
C 32.203125 28.203125 37.796875 32.59375 42.5 37.59375 
L 57.59375 37.59375 
C 61.796875 32.59375 67.40625 28.203125 73.703125 24.5 
L 54.59375 24.5 
L 54.59375 -7.796875 
L 61.203125 -7.796875 
L 61.203125 -4.09375 
L 79.40625 -4.09375 
L 79.40625 -7.5 
L 86.296875 -7.5 
L 86.296875 18.5 
C 88.40625 17.703125 90.59375 17 92.703125 16.40625 
C 93.796875 18.203125 95.796875 20.90625 97.40625 22.40625 
C 86 25.09375 74.5 30.703125 66.90625 37.59375 
z
" id="NotoSansCJKjp-Regular-22120"/>
     <path d="M 9.59375 48.203125 
C 17.296875 52.703125 21.5 59.09375 21.5 68 
C 21.5 74.40625 18.90625 78.09375 14.40625 78.09375 
C 11 78.09375 8.59375 75.796875 8.59375 72 
C 8.59375 68.296875 11.40625 66.296875 14.40625 66.296875 
C 14.796875 66.296875 15.203125 66.296875 15.5 66.40625 
C 15.5 60.09375 12.59375 56.296875 7 52.5 
z
M 29.296875 48.203125 
C 36.90625 52.703125 41.09375 59.09375 41.09375 68 
C 41.09375 74.40625 38.5 78.09375 34.09375 78.09375 
C 30.703125 78.09375 28.203125 75.796875 28.203125 72 
C 28.203125 68.296875 31 66.296875 34.09375 66.296875 
C 34.40625 66.296875 34.796875 66.296875 35.09375 66.40625 
C 35.09375 60.09375 32.296875 56.296875 26.59375 52.5 
z
" id="NotoSansCJKjp-Regular-8221"/>
     <path d="M 69.5 38 
C 69.5 18.5 77.40625 2.59375 89.40625 -9.59375 
L 95.40625 -6.5 
C 83.90625 5.40625 76.796875 20.203125 76.796875 38 
C 76.796875 55.796875 83.90625 70.59375 95.40625 82.5 
L 89.40625 85.59375 
C 77.40625 73.40625 69.5 57.5 69.5 38 
z
" id="NotoSansCJKjp-Regular-65288"/>
     <path d="M 35.296875 33.40625 
L 34.296875 40.203125 
L 23.90625 36.90625 
L 23.90625 56.703125 
L 35.203125 56.703125 
L 35.203125 63.59375 
L 23.90625 63.59375 
L 23.90625 83.59375 
L 17 83.59375 
L 17 63.59375 
L 4.59375 63.59375 
L 4.59375 56.703125 
L 17 56.703125 
L 17 34.796875 
C 11.796875 33.296875 7.09375 31.90625 3.40625 30.796875 
L 5.203125 23.703125 
C 8.796875 24.796875 12.796875 26 17 27.40625 
L 17 1.703125 
C 17 0.203125 16.5 -0.203125 15.296875 -0.203125 
C 14.203125 -0.203125 10.203125 -0.203125 5.90625 -0.09375 
C 6.90625 -2.203125 7.796875 -5.203125 8.09375 -7 
C 14.40625 -7.09375 18.203125 -6.796875 20.5 -5.59375 
C 23 -4.40625 23.90625 -2.5 23.90625 1.59375 
L 23.90625 29.703125 
z
M 46.703125 42.59375 
C 46.796875 45 46.796875 47.09375 46.796875 49.296875 
L 46.796875 53.59375 
L 66.09375 53.59375 
L 66.09375 42.59375 
z
M 84.90625 72.796875 
L 84.90625 60.09375 
L 46.796875 60.09375 
L 46.796875 72.796875 
z
M 85.59375 2.5 
L 54.90625 2.5 
L 54.90625 17.59375 
L 85.59375 17.59375 
z
M 95.40625 36.203125 
L 95.40625 42.59375 
L 73.203125 42.59375 
L 73.203125 53.59375 
L 92 53.59375 
L 92 79.296875 
L 39.59375 79.296875 
L 39.59375 49.296875 
C 39.59375 33.5 38.703125 11.796875 28.40625 -3.5 
C 30.09375 -4.203125 33.203125 -6.296875 34.40625 -7.703125 
C 42.796875 4.59375 45.5 21.40625 46.40625 36.203125 
L 66.09375 36.203125 
L 66.09375 23.90625 
L 48.40625 23.90625 
L 48.40625 -7.796875 
L 54.90625 -7.796875 
L 54.90625 -3.703125 
L 85.59375 -3.703125 
L 85.59375 -7.40625 
L 92.40625 -7.40625 
L 92.40625 23.90625 
L 73.203125 23.90625 
L 73.203125 36.203125 
z
" id="NotoSansCJKjp-Regular-25454"/>
     <path d="M 77.5 69.796875 
L 77.5 34.09375 
L 24.203125 34.09375 
L 24.203125 69.796875 
z
M 24.203125 27.09375 
L 77.5 27.09375 
L 77.5 23.90625 
L 85.203125 23.90625 
L 85.203125 76.796875 
L 16.90625 76.796875 
L 16.90625 23.40625 
L 24.203125 23.40625 
z
M 34 20.203125 
C 28.203125 12.296875 16.59375 3.203125 6.09375 -2.40625 
C 7.90625 -3.703125 10.59375 -6.203125 12.09375 -7.703125 
C 22.796875 -1.59375 34.40625 8 41.90625 17.09375 
z
M 58.90625 16 
C 68.703125 8.90625 80.90625 -1.296875 86.5 -7.90625 
L 92.90625 -3.296875 
C 86.90625 3.40625 74.59375 13.203125 64.90625 20 
z
" id="NotoSansCJKjp-Regular-21482"/>
     <path d="M 27.09375 83.40625 
C 21.5 68.296875 12.296875 53.296875 2.5 43.796875 
C 3.796875 42 5.90625 38.203125 6.703125 36.5 
C 10.09375 40 13.5 44.09375 16.59375 48.59375 
L 16.59375 -7.5 
L 23.90625 -7.5 
L 23.90625 59.796875 
C 27.796875 66.703125 31.296875 74 34.09375 81.203125 
z
M 48.40625 17.90625 
C 44.203125 10.203125 37.296875 2.40625 30.5 -2.796875 
C 32.203125 -3.703125 35.09375 -6.09375 36.40625 -7.40625 
C 43.09375 -1.703125 50.5 7 55.5 15.703125 
z
M 71 14.296875 
C 77.59375 7.703125 85 -1.59375 88.296875 -7.796875 
L 94.59375 -3.59375 
C 91.09375 2.203125 83.703125 11.09375 76.796875 17.59375 
z
M 53.59375 55.203125 
L 73.09375 55.203125 
L 73.09375 30.796875 
L 53.59375 30.796875 
z
M 80.296875 30.796875 
L 80.296875 55.203125 
L 94.5 55.203125 
L 94.5 62.40625 
L 80.296875 62.40625 
L 80.296875 82.59375 
L 73.09375 82.59375 
L 73.09375 62.40625 
L 53.59375 62.40625 
L 53.59375 82.5 
L 46.40625 82.5 
L 46.40625 62.40625 
L 33.5 62.40625 
L 33.5 55.203125 
L 46.40625 55.203125 
L 46.40625 30.796875 
L 31.09375 30.796875 
L 31.09375 23.5 
L 95.703125 23.5 
L 95.703125 30.796875 
z
" id="NotoSansCJKjp-Regular-20379"/>
     <path d="M 76.203125 17.5 
C 65.296875 6.703125 43.09375 0.59375 19 -2 
C 20.40625 -3.703125 21.796875 -6.296875 22.5 -8.203125 
C 47.703125 -4.90625 70.5 2 82.59375 14.40625 
z
M 63.203125 28.703125 
C 54.703125 22.203125 38.59375 16.796875 24.703125 14 
C 26.203125 12.59375 27.90625 10.296875 28.796875 8.703125 
C 43.40625 12 59.5 17.90625 69.203125 25.796875 
z
M 52.90625 40.296875 
C 46.5 35.59375 34.703125 31.203125 25.09375 28.703125 
C 26.703125 27.59375 28.40625 25.5 29.5 24.203125 
C 39.40625 27 51.296875 31.796875 58.703125 37.5 
z
M 94.59375 45.09375 
L 94.59375 51.5 
L 43.296875 51.5 
C 45 54.40625 46.5 57.5 47.90625 60.703125 
C 57.90625 61.09375 68.5 61.5 78.796875 61.90625 
C 81.5 59.40625 83.90625 57.09375 85.59375 55 
L 91.703125 59.09375 
C 86.40625 65.296875 75.40625 73.90625 66.40625 79.5 
L 60.59375 76 
C 64.203125 73.59375 68.09375 70.703125 71.796875 67.796875 
C 58.90625 67.40625 45.90625 67.09375 34.203125 66.90625 
C 37.796875 71.296875 41.59375 76.703125 44.796875 81.5 
L 36.796875 83.703125 
C 34.296875 78.59375 29.90625 71.796875 26 66.703125 
L 9.40625 66.40625 
L 10.296875 59.59375 
C 18.5 59.796875 28.703125 60.09375 39.796875 60.40625 
C 38.40625 57.296875 36.796875 54.296875 34.90625 51.5 
L 5.59375 51.5 
L 5.59375 45.09375 
L 30.09375 45.09375 
C 22.796875 36.5 13.203125 29.90625 2.203125 25.40625 
C 3.796875 24 6.703125 21.09375 7.703125 19.59375 
C 20.09375 25.5 31 33.90625 39.09375 45.09375 
L 61.203125 45.09375 
C 68.703125 34.703125 80.5 25.09375 91.796875 20.09375 
C 92.90625 21.90625 95.09375 24.5 96.703125 25.90625 
C 86.90625 29.703125 76.296875 37 69.40625 45.09375 
z
" id="NotoSansCJKjp-Regular-21442"/>
     <path d="M 47.09375 54.203125 
L 47.09375 65.703125 
L 69.5 65.703125 
C 65.09375 61.703125 60.296875 57.796875 55.40625 54.203125 
z
M 92.203125 47.796875 
L 92.203125 54.203125 
L 66.09375 54.203125 
C 74.296875 60.796875 81.796875 67.90625 88.203125 75.703125 
L 82.09375 79 
C 78.703125 74.90625 75 70.90625 70.90625 67 
L 70.90625 71.796875 
L 47.09375 71.796875 
L 47.09375 83.703125 
L 39.703125 83.703125 
L 39.703125 71.796875 
L 14.40625 71.796875 
L 14.40625 65.703125 
L 39.703125 65.703125 
L 39.703125 54.203125 
L 6.796875 54.203125 
L 6.796875 47.796875 
L 45.90625 47.796875 
C 42.09375 45.40625 38.09375 43 34.09375 40.796875 
L 30.90625 41.203125 
L 30.40625 38.90625 
C 21.5 34.296875 12.09375 30.296875 2.703125 27.09375 
C 4.203125 25.703125 6.5 22.796875 7.5 21.203125 
C 14.5 23.90625 21.59375 27 28.5 30.40625 
C 26.796875 23.703125 25 16.90625 23.40625 12.203125 
L 30.90625 11 
C 31.296875 12.5 31.796875 14.203125 32.296875 16 
L 73.40625 16 
C 71.59375 6 69.90625 1.203125 67.703125 -0.5 
C 66.796875 -1.296875 65.59375 -1.40625 63.40625 -1.40625 
C 61.09375 -1.40625 54.59375 -1.296875 48.40625 -0.703125 
C 49.59375 -2.59375 50.59375 -5.5 50.703125 -7.5 
C 56.90625 -7.90625 62.796875 -7.90625 65.796875 -7.796875 
C 69.296875 -7.59375 71.40625 -7.09375 73.5 -5.296875 
C 76.796875 -2.40625 78.90625 4.09375 81.296875 18.796875 
C 81.5 20 81.703125 22.203125 81.703125 22.203125 
L 33.90625 22.203125 
C 34.59375 24.59375 35.203125 27.09375 35.796875 29.703125 
C 51.59375 30.90625 69.796875 33.09375 81.796875 36.40625 
L 76.90625 41.5 
C 67.796875 38.90625 52 36.703125 37.703125 35.203125 
C 44.59375 39.09375 51.296875 43.296875 57.59375 47.796875 
z
" id="NotoSansCJKjp-Regular-32771"/>
     <path d="M 15.703125 -10.703125 
C 26.203125 -7 33 1.203125 33 12 
C 33 19 30 23.5 24.5 23.5 
C 20.40625 23.5 16.90625 21 16.90625 16.296875 
C 16.90625 11.59375 20.296875 9.203125 24.40625 9.203125 
C 25 9.203125 25.5 9.203125 26.09375 9.296875 
C 25.59375 2.5 21.203125 -2.203125 13.5 -5.40625 
z
" id="NotoSansCJKjp-Regular-65292"/>
     <path d="M 92.5 67.296875 
C 89.5 71.703125 83 77.59375 77.296875 81.703125 
L 72.09375 77.90625 
C 77.796875 73.59375 84.203125 67.296875 87 63 
z
M 19.59375 11.796875 
L 31.796875 11.796875 
L 31.796875 4.703125 
L 19.59375 4.703125 
z
M 31.796875 28.5 
L 19.59375 28.5 
L 19.59375 34.90625 
L 31.796875 34.90625 
z
M 31.796875 16.796875 
L 19.59375 16.796875 
L 19.59375 23.5 
L 31.796875 23.5 
z
M 83 47.296875 
C 80.09375 38.09375 76.203125 29.40625 71.09375 21.703125 
C 69 30 67.5 40.203125 66.5 51.796875 
L 94.5 51.796875 
L 94.5 58.40625 
L 66 58.40625 
C 65.5 66.296875 65.296875 74.703125 65.40625 83.5 
L 57.90625 83.5 
C 58 74.796875 58.203125 66.40625 58.703125 58.40625 
L 35.40625 58.40625 
L 35.40625 68.09375 
L 53.5 68.09375 
L 53.5 74.40625 
L 35.40625 74.40625 
L 35.40625 83.59375 
L 28.296875 83.59375 
L 28.296875 74.40625 
L 9.796875 74.40625 
L 9.796875 68.09375 
L 28.296875 68.09375 
L 28.296875 58.40625 
L 5.5 58.40625 
L 5.5 51.796875 
L 59.203125 51.796875 
C 60.40625 37.203125 62.5 24.296875 65.703125 14.203125 
C 61.90625 9.59375 57.703125 5.5 53.09375 2.09375 
L 53.09375 4.703125 
L 37.90625 4.703125 
L 37.90625 11.796875 
L 51.703125 11.796875 
L 51.703125 16.796875 
L 37.90625 16.796875 
L 37.90625 23.5 
L 51.703125 23.5 
L 51.703125 28.5 
L 37.90625 28.5 
L 37.90625 34.90625 
L 53.296875 34.90625 
L 53.296875 40.796875 
L 39.296875 40.796875 
C 40.703125 43.203125 42.203125 45.90625 43.5 48.59375 
L 36.90625 50.203125 
C 36.09375 47.59375 34.5 43.90625 33 40.796875 
L 21.59375 40.796875 
C 23.09375 43.59375 24.40625 46.40625 25.59375 49.296875 
L 19.203125 51 
C 15.796875 42.40625 10 33.703125 3.703125 28 
C 5.203125 27.09375 7.90625 24.796875 9 23.703125 
C 10.40625 25 11.703125 26.59375 13.09375 28.203125 
L 13.09375 -6.5 
L 19.59375 -6.5 
L 19.59375 -1.40625 
L 48 -1.40625 
L 47 -2 
C 48.90625 -3.5 51.203125 -6 52.40625 -7.703125 
C 58.40625 -3.796875 63.90625 0.90625 68.703125 6.40625 
C 72.703125 -2.40625 78 -7.59375 84.90625 -7.59375 
C 92.203125 -7.59375 94.90625 -2.90625 96.09375 12.90625 
C 94.203125 13.5 91.59375 15.09375 90 16.703125 
C 89.40625 4.40625 88.203125 -0.40625 85.5 -0.40625 
C 81 -0.40625 77 4.40625 73.796875 12.796875 
C 80.703125 22.203125 86 33.203125 89.796875 45.09375 
z
" id="NotoSansCJKjp-Regular-25130"/>
     <path d="M 57.59375 4.59375 
L 57.59375 42.90625 
L 90 42.90625 
L 90 50.203125 
L 57.59375 50.203125 
L 57.59375 83.296875 
L 49.90625 83.296875 
L 49.90625 4.59375 
L 26.703125 4.59375 
L 26.703125 61.703125 
L 19.09375 61.703125 
L 19.09375 4.59375 
L 5.296875 4.59375 
L 5.296875 -2.703125 
L 94.5 -2.703125 
L 94.5 4.59375 
z
" id="NotoSansCJKjp-Regular-27490"/>
     <path d="M 32.5 68.59375 
L 32.5 46.796875 
L 15.5 46.796875 
L 15.5 68.59375 
z
M 15.5 17.5 
L 15.5 40.09375 
L 32.5 40.09375 
L 32.5 17.5 
z
M 39.5 75.296875 
L 8.5 75.296875 
L 8.5 2.796875 
L 15.5 2.796875 
L 15.5 10.703125 
L 39.5 10.703125 
z
M 95.796875 63.703125 
L 83.703125 63.703125 
L 83.703125 83.09375 
L 76.296875 83.09375 
L 76.296875 63.703125 
L 44 63.703125 
L 44 56.40625 
L 76.296875 56.40625 
L 76.296875 3.40625 
C 76.296875 1.40625 75.5 0.796875 73.5 0.703125 
C 71.296875 0.59375 63.90625 0.59375 56.203125 0.796875 
C 57.40625 -1.203125 58.5 -4.59375 58.90625 -6.59375 
C 68.90625 -6.703125 75.203125 -6.59375 78.703125 -5.296875 
C 82.203125 -4.203125 83.703125 -1.90625 83.703125 3.40625 
L 83.703125 56.40625 
L 95.796875 56.40625 
z
M 69.09375 24.59375 
C 65.796875 30.59375 58.796875 40.796875 53.5 48.40625 
L 47.40625 45.203125 
C 52.703125 37.5 59.40625 26.90625 62.59375 20.796875 
z
" id="NotoSansCJKjp-Regular-26102"/>
     <path d="M 9.5 -7.703125 
L 17 -7.703125 
L 17 61.203125 
L 9.5 61.203125 
z
M 11 78.796875 
C 15.5 74.40625 20.703125 68.203125 23 64.203125 
L 29 68.203125 
C 26.703125 72.296875 21.296875 78.203125 16.703125 82.296875 
z
M 38 29.59375 
L 61.796875 29.59375 
L 61.796875 16.203125 
L 38 16.203125 
z
M 38 49.09375 
L 61.796875 49.09375 
L 61.796875 35.796875 
L 38 35.796875 
z
M 31.296875 10 
L 68.796875 10 
L 68.796875 55.296875 
L 31.296875 55.296875 
z
M 90.90625 78 
L 35.296875 78 
L 35.296875 71 
L 83.296875 71 
L 83.296875 1.40625 
C 83.296875 0.09375 82.90625 -0.40625 81.59375 -0.40625 
C 80.5 -0.40625 76.296875 -0.5 72.09375 -0.296875 
C 73.09375 -2.296875 74.09375 -5.296875 74.5 -7.296875 
C 80.59375 -7.296875 84.796875 -7.203125 87.40625 -5.90625 
C 90 -4.703125 90.90625 -2.796875 90.90625 1.40625 
z
" id="NotoSansCJKjp-Regular-38388"/>
     <path d="M 50 54.40625 
C 54 54.40625 57.59375 57.296875 57.59375 61.90625 
C 57.59375 66.5 54 69.40625 50 69.40625 
C 46 69.40625 42.5 66.5 42.5 61.90625 
C 42.5 57.296875 46 54.40625 50 54.40625 
z
M 50 5.40625 
C 54 5.40625 57.59375 8.40625 57.59375 12.90625 
C 57.59375 17.5 54 20.5 50 20.5 
C 46 20.5 42.5 17.5 42.5 12.90625 
C 42.5 8.40625 46 5.40625 50 5.40625 
z
" id="NotoSansCJKjp-Regular-65306"/>
     <path d="M 4.40625 0 
L 50.5 0 
L 50.5 7.90625 
L 30.203125 7.90625 
C 26.5 7.90625 22 7.5 18.203125 7.203125 
C 35.40625 23.5 46.90625 38.40625 46.90625 53 
C 46.90625 66.09375 38.703125 74.703125 25.59375 74.703125 
C 16.296875 74.703125 10 70.40625 4 63.90625 
L 9.296875 58.703125 
C 13.296875 63.5 18.5 67.203125 24.5 67.203125 
C 33.59375 67.203125 38 61.09375 38 52.703125 
C 38 40.09375 27.40625 25.5 4.40625 5.40625 
z
" id="NotoSansCJKjp-Regular-50"/>
     <path d="M 27.796875 -1.296875 
C 41.703125 -1.296875 50.59375 11.40625 50.59375 36.90625 
C 50.59375 62.296875 41.703125 74.703125 27.796875 74.703125 
C 13.796875 74.703125 4.90625 62.40625 4.90625 36.90625 
C 4.90625 11.40625 13.796875 -1.296875 27.796875 -1.296875 
z
M 27.796875 6 
C 19.40625 6 13.796875 15.296875 13.796875 36.90625 
C 13.796875 58.296875 19.40625 67.40625 27.796875 67.40625 
C 36.09375 67.40625 41.703125 58.296875 41.703125 36.90625 
C 41.703125 15.296875 36.09375 6 27.796875 6 
z
" id="NotoSansCJKjp-Regular-48"/>
     <path d="M 11.5 27.5 
L 28.203125 52.5 
C 30.296875 56.09375 32.296875 59.703125 34.09375 63.296875 
L 34.5 63.296875 
C 34.296875 59.5 34 53.59375 34 50 
L 34 27.5 
z
M 34 0 
L 42.59375 0 
L 42.59375 20.203125 
L 52.296875 20.203125 
L 52.296875 27.5 
L 42.59375 27.5 
L 42.59375 73.40625 
L 32.5 73.40625 
L 2 26.203125 
L 2 20.203125 
L 34 20.203125 
z
" id="NotoSansCJKjp-Regular-52"/>
     <path d="M 13.90625 -1.296875 
C 17.5 -1.296875 20.5 1.5 20.5 5.59375 
C 20.5 9.796875 17.5 12.703125 13.90625 12.703125 
C 10.296875 12.703125 7.296875 9.796875 7.296875 5.59375 
C 7.296875 1.5 10.296875 -1.296875 13.90625 -1.296875 
z
" id="NotoSansCJKjp-Regular-46"/>
     <path d="M 26.09375 -1.296875 
C 38.5 -1.296875 50.09375 7.796875 50.09375 23.90625 
C 50.09375 40 40.203125 47.203125 28 47.203125 
C 23.59375 47.203125 20.40625 46.09375 17.09375 44.296875 
L 18.90625 65.5 
L 46.59375 65.5 
L 46.59375 73.40625 
L 10.90625 73.40625 
L 8.59375 39 
L 13.5 36 
C 17.703125 38.796875 20.796875 40.296875 25.703125 40.296875 
C 34.90625 40.296875 40.90625 34.09375 40.90625 23.59375 
C 40.90625 12.90625 33.90625 6.296875 25.296875 6.296875 
C 16.796875 6.296875 11.5 10.203125 7.296875 14.40625 
L 2.796875 8.40625 
C 7.703125 3.5 14.703125 -1.296875 26.09375 -1.296875 
z
" id="NotoSansCJKjp-Regular-53"/>
     <path d="M 13 50.90625 
C 13 60.90625 18.40625 67.5 25.40625 67.5 
C 34.796875 67.5 40.40625 59.5 41.40625 44.40625 
C 36.703125 37.5 31.09375 34.59375 26.09375 34.59375 
C 17.40625 34.59375 13 41 13 50.90625 
z
M 23.40625 -1.296875 
C 37.203125 -1.296875 50 10.09375 50 39.796875 
C 50 63.09375 39.5 74.703125 25.40625 74.703125 
C 14 74.703125 4.40625 65.09375 4.40625 50.90625 
C 4.40625 35.703125 12.40625 27.796875 24.59375 27.796875 
C 30.703125 27.796875 37 31.296875 41.5 36.796875 
C 40.796875 14.09375 32.59375 6.296875 23.09375 6.296875 
C 18.40625 6.296875 13.90625 8.40625 10.90625 11.90625 
L 5.796875 6.203125 
C 9.90625 1.90625 15.5 -1.296875 23.40625 -1.296875 
z
" id="NotoSansCJKjp-Regular-57"/>
     <path d="M 13.90625 39 
C 17.5 39 20.5 41.90625 20.5 45.90625 
C 20.5 50.09375 17.5 53 13.90625 53 
C 10.296875 53 7.296875 50.09375 7.296875 45.90625 
C 7.296875 41.90625 10.296875 39 13.90625 39 
z
M 13.90625 -1.296875 
C 17.5 -1.296875 20.5 1.5 20.5 5.59375 
C 20.5 9.796875 17.5 12.703125 13.90625 12.703125 
C 10.296875 12.703125 7.296875 9.796875 7.296875 5.59375 
C 7.296875 1.5 10.296875 -1.296875 13.90625 -1.296875 
z
" id="NotoSansCJKjp-Regular-58"/>
     <path d="M 8.796875 0 
L 49 0 
L 49 7.59375 
L 34.296875 7.59375 
L 34.296875 73.40625 
L 27.296875 73.40625 
C 23.296875 71 18.59375 69.296875 12.09375 68.09375 
L 12.09375 62.296875 
L 25.09375 62.296875 
L 25.09375 7.59375 
L 8.796875 7.59375 
z
" id="NotoSansCJKjp-Regular-49"/>
     <path d="M 29.296875 38.703125 
C 38.203125 38.703125 42.59375 32.40625 42.59375 22.5 
C 42.59375 12.5 37.09375 5.796875 30.09375 5.796875 
C 20.90625 5.796875 15.40625 14.09375 14.296875 29.296875 
C 18.796875 36 24.703125 38.703125 29.296875 38.703125 
z
M 30.09375 -1.296875 
C 41.5 -1.296875 51.09375 8.296875 51.09375 22.5 
C 51.09375 37.796875 43.203125 45.5 30.796875 45.5 
C 25 45.5 18.59375 42.09375 14.09375 36.59375 
C 14.5 59.40625 23 67.09375 33 67.09375 
C 37.5 67.09375 41.90625 65 44.796875 61.5 
L 49.796875 67.203125 
C 45.796875 71.5 40.296875 74.703125 32.703125 74.703125 
C 18.5 74.703125 5.59375 63.703125 5.59375 35 
C 5.59375 10.796875 16 -1.296875 30.09375 -1.296875 
z
" id="NotoSansCJKjp-Regular-54"/>
     <path d="M 26.40625 -1.296875 
C 39.40625 -1.296875 49.90625 6.5 49.90625 19.59375 
C 49.90625 29.59375 43 36.203125 34.40625 38.203125 
L 34.40625 38.59375 
C 42.09375 41.5 47.40625 47.40625 47.40625 56.296875 
C 47.40625 67.90625 38.40625 74.703125 26.09375 74.703125 
C 17.59375 74.703125 11.09375 71 5.59375 65.90625 
L 10.5 60.09375 
C 14.59375 64.296875 19.796875 67.203125 25.703125 67.203125 
C 33.296875 67.203125 38.09375 62.59375 38.09375 55.59375 
C 38.09375 47.703125 32.90625 41.59375 17.796875 41.59375 
L 17.796875 34.59375 
C 34.703125 34.59375 40.59375 28.703125 40.59375 20 
C 40.59375 11.5 34.40625 6.296875 25.703125 6.296875 
C 17.40625 6.296875 11.796875 10.203125 7.5 14.703125 
L 2.90625 8.703125 
C 7.703125 3.5 14.90625 -1.296875 26.40625 -1.296875 
z
" id="NotoSansCJKjp-Regular-51"/>
     <path d="M 27.90625 -1.296875 
C 41.703125 -1.296875 50.90625 7 50.90625 17.703125 
C 50.90625 27.703125 44.90625 33.203125 38.5 36.90625 
L 38.5 37.40625 
C 42.90625 40.796875 48.296875 47.40625 48.296875 55.09375 
C 48.296875 66.40625 40.703125 74.40625 28.203125 74.40625 
C 16.796875 74.40625 8.09375 67 8.09375 55.796875 
C 8.09375 48.09375 12.59375 42.59375 18 38.90625 
L 18 38.40625 
C 11.296875 34.796875 4.5 28 4.5 18.203125 
C 4.5 6.90625 14.40625 -1.296875 27.90625 -1.296875 
z
M 32.90625 39.796875 
C 24.296875 43.203125 16.40625 47 16.40625 55.796875 
C 16.40625 62.90625 21.296875 67.703125 28.09375 67.703125 
C 36 67.703125 40.5 61.796875 40.5 54.59375 
C 40.5 49.203125 37.90625 44.203125 32.90625 39.796875 
z
M 28.09375 5.5 
C 19.296875 5.5 12.796875 11.203125 12.796875 19 
C 12.796875 26 16.90625 31.796875 22.796875 35.59375 
C 33.203125 31.40625 42.203125 27.703125 42.203125 17.90625 
C 42.203125 10.59375 36.5 5.5 28.09375 5.5 
z
" id="NotoSansCJKjp-Regular-56"/>
     <path d="M 30.5 38 
C 30.5 57.5 22.59375 73.40625 10.59375 85.59375 
L 4.59375 82.5 
C 16.09375 70.59375 23.203125 55.796875 23.203125 38 
C 23.203125 20.203125 16.09375 5.40625 4.59375 -6.5 
L 10.59375 -9.59375 
C 22.59375 2.59375 30.5 18.5 30.5 38 
z
" id="NotoSansCJKjp-Regular-65289"/>
    </defs>
    <g transform="translate(188.271094 35.472)scale(0.1 -0.1)">
     <use xlink:href="#NotoSansCJKjp-Regular-8220"/>
     <use x="47.499985" xlink:href="#NotoSansCJKjp-Regular-85"/>
     <use x="119.599976" xlink:href="#NotoSansCJKjp-Regular-69"/>
     <use x="178.399963" xlink:href="#NotoSansCJKjp-Regular-110"/>
     <use x="239.499954" xlink:href="#NotoSansCJKjp-Regular-103"/>
     <use x="295.799942" xlink:href="#NotoSansCJKjp-Regular-105"/>
     <use x="323.299927" xlink:href="#NotoSansCJKjp-Regular-110"/>
     <use x="384.399918" xlink:href="#NotoSansCJKjp-Regular-101"/>
     <use x="439.799911" xlink:href="#NotoSansCJKjp-Regular-32"/>
     <use x="462.199905" xlink:href="#NotoSansCJKjp-Regular-36816"/>
     <use x="562.19989" xlink:href="#NotoSansCJKjp-Regular-34892"/>
     <use x="662.199875" xlink:href="#NotoSansCJKjp-Regular-22120"/>
     <use x="762.19986" xlink:href="#NotoSansCJKjp-Regular-8221"/>
     <use x="809.699844" xlink:href="#NotoSansCJKjp-Regular-25171"/>
     <use x="909.699829" xlink:href="#NotoSansCJKjp-Regular-24320"/>
     <use x="1009.699814" xlink:href="#NotoSansCJKjp-Regular-25968"/>
     <use x="1109.699799" xlink:href="#NotoSansCJKjp-Regular-65288"/>
     <use x="1209.699783" xlink:href="#NotoSansCJKjp-Regular-25968"/>
     <use x="1309.699768" xlink:href="#NotoSansCJKjp-Regular-25454"/>
     <use x="1409.699753" xlink:href="#NotoSansCJKjp-Regular-21482"/>
     <use x="1509.699738" xlink:href="#NotoSansCJKjp-Regular-20379"/>
     <use x="1609.699722" xlink:href="#NotoSansCJKjp-Regular-21442"/>
     <use x="1709.699707" xlink:href="#NotoSansCJKjp-Regular-32771"/>
     <use x="1809.699692" xlink:href="#NotoSansCJKjp-Regular-65292"/>
     <use x="1909.699677" xlink:href="#NotoSansCJKjp-Regular-25130"/>
     <use x="2009.699661" xlink:href="#NotoSansCJKjp-Regular-27490"/>
     <use x="2109.699646" xlink:href="#NotoSansCJKjp-Regular-26102"/>
     <use x="2209.699631" xlink:href="#NotoSansCJKjp-Regular-38388"/>
     <use x="2309.699615" xlink:href="#NotoSansCJKjp-Regular-65306"/>
     <use x="2409.6996" xlink:href="#NotoSansCJKjp-Regular-50"/>
     <use x="2465.199585" xlink:href="#NotoSansCJKjp-Regular-48"/>
     <use x="2520.69957" xlink:href="#NotoSansCJKjp-Regular-50"/>
     <use x="2576.199554" xlink:href="#NotoSansCJKjp-Regular-52"/>
     <use x="2631.699539" xlink:href="#NotoSansCJKjp-Regular-46"/>
     <use x="2659.499527" xlink:href="#NotoSansCJKjp-Regular-53"/>
     <use x="2714.999512" xlink:href="#NotoSansCJKjp-Regular-46"/>
     <use x="2742.7995" xlink:href="#NotoSansCJKjp-Regular-57"/>
     <use x="2798.299484" xlink:href="#NotoSansCJKjp-Regular-32"/>
     <use x="2820.699478" xlink:href="#NotoSansCJKjp-Regular-50"/>
     <use x="2876.199463" xlink:href="#NotoSansCJKjp-Regular-58"/>
     <use x="2903.999451" xlink:href="#NotoSansCJKjp-Regular-49"/>
     <use x="2959.499435" xlink:href="#NotoSansCJKjp-Regular-49"/>
     <use x="3014.99942" xlink:href="#NotoSansCJKjp-Regular-58"/>
     <use x="3042.799408" xlink:href="#NotoSansCJKjp-Regular-49"/>
     <use x="3098.299393" xlink:href="#NotoSansCJKjp-Regular-57"/>
     <use x="3153.799377" xlink:href="#NotoSansCJKjp-Regular-46"/>
     <use x="3181.599365" xlink:href="#NotoSansCJKjp-Regular-54"/>
     <use x="3237.09935" xlink:href="#NotoSansCJKjp-Regular-51"/>
     <use x="3292.599335" xlink:href="#NotoSansCJKjp-Regular-48"/>
     <use x="3348.099319" xlink:href="#NotoSansCJKjp-Regular-56"/>
     <use x="3403.599304" xlink:href="#NotoSansCJKjp-Regular-57"/>
     <use x="3459.099289" xlink:href="#NotoSansCJKjp-Regular-51"/>
     <use x="3514.599274" xlink:href="#NotoSansCJKjp-Regular-65289"/>
    </g>
   </g>
  </g>
 </g>
 <defs>
  <clipPath id="p5f47e535dd">
   <rect height="266.112" width="558" x="90" y="41.472"/>
  </clipPath>
 </defs>
</svg>
